<?xml version="1.0" standalone="no"?>
<!DOCTYPE svg PUBLIC "-//W3C//DTD SVG 20010904//EN"
 "http://www.w3.org/TR/2001/REC-SVG-20010904/DTD/svg10.dtd">
<svg version="1.0" xmlns="http://www.w3.org/2000/svg"
 width="1024.000000pt" height="1024.000000pt" viewBox="0 0 1024.000000 1024.000000"
 preserveAspectRatio="xMidYMid meet">
<metadata>
Created by potrace 1.14, written by Peter Selinger 2001-2017
</metadata>
<g transform="translate(0.000000,1024.000000) scale(0.100000,-0.100000)"
fill="#000000" stroke="none">
<path d="M0 5120 l0 -5120 5120 0 5120 0 0 5120 0 5120 -5120 0 -5120 0 0
-5120z m6160 3266 c303 -38 565 -98 895 -208 156 -52 525 -209 525 -223 0 -6
-56 -150 -80 -205 -10 -25 -35 -88 -55 -140 -20 -52 -40 -104 -45 -115 -5 -11
-41 -101 -80 -200 -39 -99 -77 -193 -84 -210 -8 -16 -31 -75 -51 -130 -21 -55
-40 -102 -41 -104 -2 -2 -70 26 -151 62 -81 36 -173 75 -203 88 -30 12 -59 26
-65 30 -5 3 -24 10 -42 14 -18 3 -51 16 -74 27 -62 30 -350 123 -455 147 -181
41 -306 53 -504 48 -198 -5 -319 -24 -462 -71 -82 -26 -278 -117 -300 -139 -7
-7 -42 -33 -78 -59 -99 -69 -242 -219 -320 -334 -39 -56 -70 -105 -70 -108 0
-3 -14 -29 -31 -57 -73 -118 -149 -318 -204 -539 -74 -301 -99 -564 -92 -965
9 -478 60 -795 182 -1124 34 -92 150 -306 206 -381 100 -132 252 -276 359
-338 139 -82 321 -150 485 -182 215 -42 617 -37 900 11 224 38 590 124 740
174 55 18 145 47 200 65 55 17 107 34 115 37 8 4 25 8 38 10 l22 4 0 -573 0
-573 -62 -24 c-35 -13 -88 -32 -118 -43 -30 -11 -64 -24 -75 -29 -63 -28 -441
-124 -605 -153 -313 -58 -475 -71 -880 -71 -401 0 -481 6 -775 61 -227 42
-448 116 -665 221 -85 42 -157 79 -160 83 -3 4 -25 18 -50 31 -183 99 -474
367 -642 591 -48 64 -95 130 -105 146 -132 224 -161 280 -215 412 -16 41 -37
91 -46 110 -14 31 -98 290 -108 330 -2 8 -16 71 -33 140 -36 154 -66 330 -81
475 -6 61 -16 148 -21 195 -17 141 -23 648 -10 819 22 281 45 434 116 772 13
63 112 371 139 434 8 16 24 55 36 85 54 131 115 251 213 415 22 37 71 110 76
115 3 3 21 28 40 55 93 135 303 361 440 475 195 161 482 332 696 414 39 15 79
31 90 36 11 5 80 28 153 50 161 50 382 96 557 115 71 8 146 17 165 19 83 10
631 -3 750 -18z"/>
</g>
</svg>
